<svg width="149" height="37" viewBox="0 0 149 37" fill="none" xmlns="http://www.w3.org/2000/svg">
<path d="M6.77753 26.3948C6.18719 26.3948 5.55144 26.3154 4.87029 26.1564C4.21184 26.0202 3.55338 25.8499 2.89493 25.6456C2.25919 25.4185 1.66885 25.2142 1.12393 25.0325L3.20145 22.1376C3.72367 22.4555 4.33671 22.7393 5.04058 22.9891C5.76714 23.2388 6.49371 23.3637 7.22028 23.3637C7.99226 23.3637 8.69612 23.1821 9.33186 22.8188C9.96761 22.4555 10.4785 21.8311 10.8645 20.9456C11.2732 20.0374 11.4775 18.7999 11.4775 17.2333C11.4775 15.8937 11.3072 14.7925 10.9666 13.9297C10.6488 13.0669 10.1833 12.4311 9.57027 12.0224C8.97993 11.6137 8.26472 11.4094 7.42463 11.4094C6.78888 11.4094 6.11908 11.5797 5.41521 11.9203C4.73406 12.2608 4.01884 12.8285 3.26957 13.6231V11.2391C4.15507 10.5579 4.96111 9.99031 5.68768 9.53621C6.41424 9.0821 7.03864 8.74153 7.56086 8.51447C8.10578 8.28742 8.54853 8.17389 8.88911 8.17389C9.61568 8.17389 10.3422 8.35554 11.0688 8.71882C11.7954 9.0594 12.4538 9.59297 13.0442 10.3195C13.6345 11.0234 14.1 11.9316 14.4405 13.0442C14.8038 14.1567 14.9855 15.4623 14.9855 16.9608C14.9855 18.2096 14.7698 19.4016 14.3384 20.5369C13.9297 21.6494 13.3507 22.6485 12.6014 23.534C11.8521 24.4195 10.978 25.1233 9.97896 25.6456C8.97993 26.1451 7.91279 26.3948 6.77753 26.3948ZM0.340595 36.4419V15.6666L1.66954e-05 9.19563L3.74638 8.51447V10.8985L3.57609 22.8188L4.08696 35.7607L0.340595 36.4419ZM19.8307 25.884V15.6666L19.4901 9.19563L23.2365 8.51447V17.3695L23.4068 25.884H19.8307ZM21.3974 5.34709C20.7843 5.34709 20.2508 5.13139 19.7967 4.7C19.3653 4.24589 19.1496 3.71232 19.1496 3.09928C19.1496 2.48624 19.3653 1.97537 19.7967 1.56667C20.2508 1.13527 20.7843 0.919575 21.3974 0.919575C22.0104 0.919575 22.5213 1.13527 22.93 1.56667C23.3614 1.97537 23.5771 2.48624 23.5771 3.09928C23.5771 3.71232 23.3614 4.24589 22.93 4.7C22.5213 5.13139 22.0104 5.34709 21.3974 5.34709ZM41.6158 10.4217L35.9622 17.9144L32.5564 23.1593L41.3092 22.6485V25.884H28.197L27.6521 24.1811L33.2035 16.7905L36.6433 11.5797L28.7078 12.0905V8.85505H41.0708L41.6158 10.4217ZM58.6447 10.4217L52.9911 17.9144L49.5853 23.1593L58.3382 22.6485V25.884H45.2259L44.681 24.1811L50.2324 16.7905L53.6722 11.5797L45.7368 12.0905V8.85505H58.0998L58.6447 10.4217ZM71.6888 26.2246L71.5186 22.8528L71.6888 15.8369C71.7115 14.8152 71.5072 13.9751 71.0758 13.3166C70.6444 12.6355 70.0314 12.17 69.2367 11.9203C68.4647 11.6478 67.5678 11.6137 66.5461 11.8181C65.5471 11.9997 64.4799 12.4311 63.3447 13.1123V10.7282C64.6843 9.86543 65.8309 9.25239 66.7845 8.88911C67.7381 8.52583 68.4647 8.34418 68.9642 8.34418C70.1903 8.34418 71.2461 8.6507 72.1316 9.26375C73.0398 9.87679 73.7437 10.6488 74.2432 11.5797C74.7427 12.5106 74.9697 13.4756 74.9243 14.4746L74.754 18.9021L75.0946 25.5434L71.6888 26.2246ZM66.512 26.2246C65.7401 26.2246 65.0135 26.0543 64.3323 25.7137C63.6512 25.3504 63.0949 24.8395 62.6635 24.1811C62.2548 23.4999 62.0505 22.6825 62.0505 21.7289C62.0505 20.8888 62.2321 20.0714 62.5954 19.2768C62.9587 18.4821 63.515 17.8009 64.2642 17.2333C65.0362 16.6657 66.0012 16.3137 67.1591 16.1775L72.7106 15.4623V17.5398L67.7722 18.6297C67.1819 18.7659 66.7164 18.9475 66.3758 19.1746C66.0352 19.4016 65.7855 19.6741 65.6265 19.992C65.4903 20.2871 65.4222 20.6391 65.4222 21.0478C65.4222 21.4792 65.5244 21.8765 65.7287 22.2398C65.9558 22.5804 66.2509 22.8415 66.6142 23.0231C66.9775 23.2048 67.3862 23.2956 67.8403 23.2956C68.476 23.2729 69.0664 23.1253 69.6113 22.8528C70.1789 22.5804 70.7012 22.183 71.178 21.6608C71.6548 21.1159 72.1089 20.4574 72.5403 19.6854L71.757 22.9891C71.3256 23.534 70.8487 24.0562 70.3265 24.5557C69.827 25.0325 69.2594 25.4299 68.6236 25.7477C68.0106 26.0656 67.3067 26.2246 66.512 26.2246ZM78.8386 24.7941L80.5074 21.6608C81.234 22.1603 81.9833 22.5463 82.7552 22.8188C83.5499 23.0912 84.2651 23.2275 84.9009 23.2275C85.4004 23.2275 85.8318 23.1593 86.1951 23.0231C86.5811 22.8642 86.8762 22.6371 87.0806 22.342C87.3076 22.0468 87.4212 21.6722 87.4212 21.218C87.4212 20.6731 87.2622 20.2531 86.9444 19.9579C86.6265 19.64 86.1951 19.3789 85.6502 19.1746C85.1279 18.9702 84.549 18.7659 83.9132 18.5615C83.1639 18.3118 82.426 18.0166 81.6994 17.676C80.9956 17.3355 80.4052 16.8813 79.9284 16.3137C79.4743 15.7461 79.2473 15.0082 79.2473 14.1C79.2473 13.2599 79.4403 12.4992 79.8263 11.8181C80.235 11.1142 80.7685 10.5125 81.427 10.013C82.0854 9.5135 82.812 9.12751 83.6067 8.85505C84.4241 8.58259 85.2415 8.44636 86.0589 8.44636C86.8308 8.44636 87.5687 8.57124 88.2726 8.82099C88.9765 9.07075 89.6009 9.45674 90.1458 9.97896L88.5451 12.7717C87.7958 12.2722 87.1033 11.9203 86.4675 11.7159C85.8545 11.4889 85.2982 11.3753 84.7987 11.3753C84.1176 11.3753 83.584 11.5456 83.198 11.8862C82.8347 12.2268 82.6531 12.6355 82.6531 13.1123C82.6531 13.4529 82.7439 13.7594 82.9255 14.0318C83.1299 14.2816 83.4364 14.5087 83.8451 14.713C84.2538 14.9173 84.776 15.1217 85.4118 15.326C86.0021 15.5077 86.6151 15.7347 87.2509 16.0072C87.8866 16.2797 88.477 16.6202 89.0219 17.0289C89.5668 17.4376 90.0096 17.9485 90.3501 18.5615C90.6907 19.1746 90.861 19.9125 90.861 20.7753C90.861 21.7516 90.4977 22.6598 89.7712 23.4999C89.0673 24.34 88.1477 25.0212 87.0125 25.5434C85.8772 26.0656 84.6738 26.3267 83.4023 26.3267C82.6077 26.3267 81.813 26.2018 81.0183 25.9521C80.2463 25.7023 79.5197 25.3163 78.8386 24.7941ZM95.1946 0.681171L98.8728 1.32484e-05V17.3695L99.0431 25.884H95.5352V7.15216L95.1946 0.681171ZM105.855 25.884L106.025 15.6666C106.048 14.6676 105.9 13.8502 105.582 13.2145C105.264 12.556 104.856 12.0678 104.356 11.75C103.857 11.4321 103.323 11.2732 102.755 11.2732C102.006 11.2732 101.348 11.4094 100.78 11.6819C100.235 11.9543 99.7811 12.2722 99.4178 12.6355C99.0545 12.9988 98.7593 13.328 98.5323 13.6231L98.1917 11.4775C98.6004 11.1596 99.0545 10.8191 99.554 10.4558C100.076 10.0698 100.61 9.7065 101.155 9.36592C101.7 9.00264 102.222 8.71882 102.721 8.51447C103.244 8.28742 103.72 8.17389 104.152 8.17389C105.378 8.17389 106.388 8.48042 107.183 9.09346C108 9.7065 108.591 10.4785 108.954 11.4094C109.34 12.3403 109.499 13.3053 109.431 14.3043L109.26 16.8586L109.601 25.884H105.855ZM121.34 8.34418C122.952 8.34418 124.292 8.76423 125.359 9.60432C126.449 10.4217 127.266 11.5002 127.811 12.8398C128.356 14.1794 128.629 15.6212 128.629 17.1652C128.629 18.4594 128.402 19.6741 127.948 20.8094C127.516 21.9219 126.915 22.8982 126.143 23.7383C125.393 24.5784 124.519 25.2369 123.52 25.7137C122.544 26.1678 121.522 26.3948 120.455 26.3948C118.866 26.3948 117.526 25.9861 116.436 25.1688C115.346 24.3287 114.529 23.2388 113.984 21.8992C113.439 20.5596 113.166 19.1178 113.166 17.5739C113.166 16.2797 113.382 15.0763 113.814 13.9637C114.268 12.8285 114.869 11.8408 115.619 11.0007C116.391 10.1606 117.265 9.5135 118.241 9.0594C119.24 8.58259 120.273 8.34418 121.34 8.34418ZM116.674 16.6202C116.674 17.4603 116.765 18.2664 116.947 19.0383C117.129 19.8103 117.39 20.5028 117.73 21.1159C118.094 21.7062 118.548 22.1717 119.093 22.5122C119.637 22.8528 120.273 23.0231 121 23.0231C121.863 23.0231 122.601 22.8755 123.214 22.5804C123.827 22.2625 124.292 21.7516 124.61 21.0478C124.951 20.3212 125.121 19.3449 125.121 18.1188C125.121 17.256 125.03 16.45 124.848 15.7007C124.667 14.9287 124.394 14.2475 124.031 13.6572C123.69 13.0442 123.248 12.5674 122.703 12.2268C122.158 11.8862 121.522 11.7159 120.795 11.7159C119.955 11.7159 119.229 11.8748 118.616 12.1927C118.003 12.4879 117.526 12.9874 117.185 13.6913C116.845 14.3951 116.674 15.3715 116.674 16.6202ZM139.849 26.3948C139.259 26.3948 138.623 26.3154 137.942 26.1564C137.284 26.0202 136.625 25.8499 135.967 25.6456C135.331 25.4185 134.741 25.2142 134.196 25.0325L136.273 22.1376C136.795 22.4555 137.408 22.7393 138.112 22.9891C138.839 23.2388 139.565 23.3637 140.292 23.3637C141.064 23.3637 141.768 23.1821 142.404 22.8188C143.039 22.4555 143.55 21.8311 143.936 20.9456C144.345 20.0374 144.549 18.7999 144.549 17.2333C144.549 15.8937 144.379 14.7925 144.038 13.9297C143.72 13.0669 143.255 12.4311 142.642 12.0224C142.052 11.6137 141.336 11.4094 140.496 11.4094C139.861 11.4094 139.191 11.5797 138.487 11.9203C137.806 12.2608 137.091 12.8285 136.341 13.6231V11.2391C137.227 10.5579 138.033 9.99031 138.759 9.53621C139.486 9.0821 140.11 8.74153 140.633 8.51447C141.177 8.28742 141.62 8.17389 141.961 8.17389C142.687 8.17389 143.414 8.35554 144.141 8.71882C144.867 9.0594 145.526 9.59297 146.116 10.3195C146.706 11.0234 147.172 11.9316 147.512 13.0442C147.876 14.1567 148.057 15.4623 148.057 16.9608C148.057 18.2096 147.841 19.4016 147.41 20.5369C147.001 21.6494 146.422 22.6485 145.673 23.534C144.924 24.4195 144.05 25.1233 143.051 25.6456C142.052 26.1451 140.984 26.3948 139.849 26.3948ZM133.412 36.4419V15.6666L133.072 9.19563L136.818 8.51447V10.8985L136.648 22.8188L137.159 35.7607L133.412 36.4419Z" fill="url(#paint0_linear_9_7)"/>
<defs>
<linearGradient id="paint0_linear_9_7" x1="129.2" y1="-4.11603" x2="33.3646" y2="53.7864" gradientUnits="userSpaceOnUse">
<stop stop-color="#FF6432"/>
<stop offset="1" stop-color="#FFA228"/>
</linearGradient>
</defs>
</svg>
